<svg width="18" height="20" viewBox="0 0 18 20" fill="none" xmlns="http://www.w3.org/2000/svg">
<path d="M9.95091 0.420158C9.37725 -0.140053 8.4799 -0.140053 7.90624 0.420158L0.698631 7.45885C0.252679 7.89436 0 8.5003 0 9.13419V17.6944C0 18.9677 0.99936 20 2.23214 20H4.46429C5.69707 20 6.69643 18.9677 6.69643 17.6944V13.8518C6.69643 13.4274 7.02955 13.0833 7.44048 13.0833H10.4167C10.8276 13.0833 11.1607 13.4274 11.1607 13.8518V17.6944C11.1607 18.9677 12.1601 20 13.3929 20H15.625C16.8577 20 17.8571 18.9677 17.8571 17.6944V9.13419C17.8571 8.5003 17.6045 7.89436 17.1585 7.45885L9.95091 0.420158Z" fill="#EEEEEE"/>
</svg>
