<svg width="19" height="20" viewBox="0 0 19 20" fill="none" xmlns="http://www.w3.org/2000/svg">
<path d="M16.4062 2.5H12.5C12.5 1.12109 11.0986 0 9.375 0C7.65137 0 6.25 1.12109 6.25 2.5H2.34375C1.0498 2.5 0 3.33984 0 4.375V18.125C0 19.1602 1.0498 20 2.34375 20H16.4062C17.7002 20 18.75 19.1602 18.75 18.125V4.375C18.75 3.33984 17.7002 2.5 16.4062 2.5ZM4.6875 16.5625C4.03809 16.5625 3.51562 16.1445 3.51562 15.625C3.51562 15.1055 4.03809 14.6875 4.6875 14.6875C5.33691 14.6875 5.85937 15.1055 5.85937 15.625C5.85937 16.1445 5.33691 16.5625 4.6875 16.5625ZM4.6875 12.8125C4.03809 12.8125 3.51562 12.3945 3.51562 11.875C3.51562 11.3555 4.03809 10.9375 4.6875 10.9375C5.33691 10.9375 5.85937 11.3555 5.85937 11.875C5.85937 12.3945 5.33691 12.8125 4.6875 12.8125ZM4.6875 9.0625C4.03809 9.0625 3.51562 8.64453 3.51562 8.125C3.51562 7.60547 4.03809 7.1875 4.6875 7.1875C5.33691 7.1875 5.85937 7.60547 5.85937 8.125C5.85937 8.64453 5.33691 9.0625 4.6875 9.0625ZM9.375 1.5625C10.0244 1.5625 10.5469 1.98047 10.5469 2.5C10.5469 3.01953 10.0244 3.4375 9.375 3.4375C8.72559 3.4375 8.20312 3.01953 8.20312 2.5C8.20312 1.98047 8.72559 1.5625 9.375 1.5625ZM15.625 15.9375C15.625 16.1094 15.4492 16.25 15.2344 16.25H8.20312C7.98828 16.25 7.8125 16.1094 7.8125 15.9375V15.3125C7.8125 15.1406 7.98828 15 8.20312 15H15.2344C15.4492 15 15.625 15.1406 15.625 15.3125V15.9375ZM15.625 12.1875C15.625 12.3594 15.4492 12.5 15.2344 12.5H8.20312C7.98828 12.5 7.8125 12.3594 7.8125 12.1875V11.5625C7.8125 11.3906 7.98828 11.25 8.20312 11.25H15.2344C15.4492 11.25 15.625 11.3906 15.625 11.5625V12.1875ZM15.625 8.4375C15.625 8.60938 15.4492 8.75 15.2344 8.75H8.20312C7.98828 8.75 7.8125 8.60938 7.8125 8.4375V7.8125C7.8125 7.64062 7.98828 7.5 8.20312 7.5H15.2344C15.4492 7.5 15.625 7.64062 15.625 7.8125V8.4375Z" fill="#EEEEEE"/>
</svg>
