<svg width="12" height="16" viewBox="0 0 12 16" fill="none" xmlns="http://www.w3.org/2000/svg">
<path d="M10.7057 8.26331C9.60559 4.64552 6.36798 0.784441 6.20338 0.589364C6.10252 0.470212 5.89913 0.470212 5.79826 0.589364C5.63367 0.784441 2.3955 4.64497 1.29487 8.26331C1.06931 9.00538 0.926331 9.73858 0.926331 10.4263C0.926331 13.2239 3.20297 15.5 6.00055 15.5C8.79813 15.5 11.0737 13.2239 11.0737 10.4263C11.0742 9.73858 10.9312 9.00593 10.7057 8.26331ZM6.0011 14.9702C3.49558 14.9702 1.45725 12.9319 1.45725 10.4269C1.45725 9.74689 1.60855 9.01203 1.85018 8.26387C2.81281 5.28506 5.27677 2.08126 6.0011 1.18069C6.72543 2.08126 9.18939 5.28506 10.1509 8.26387C10.3925 9.01258 10.5438 9.74689 10.5438 10.4269C10.5438 12.9319 8.50606 14.9702 6.0011 14.9702Z" fill="#252525"/>
<path d="M3.15698 8.26331C2.87988 8.96714 2.69478 9.67207 2.69478 10.3138C2.69478 12.1399 4.17503 13.6196 6.00055 13.6196C7.82663 13.6196 9.30688 12.1399 9.30688 10.3138C9.30688 9.67207 9.12178 8.96714 8.84469 8.26331H3.15698Z" fill="#252525"/>
</svg>
