<svg width="29" height="20" viewBox="0 0 29 20" fill="none" xmlns="http://www.w3.org/2000/svg">
<path d="M8.57143 10C11.3348 10 13.5714 7.76339 13.5714 5C13.5714 2.23661 11.3348 0 8.57143 0C5.80804 0 3.57143 2.23661 3.57143 5C3.57143 7.76339 5.80804 10 8.57143 10ZM12 11.4286H11.6295C10.7009 11.875 9.66964 12.1429 8.57143 12.1429C7.47321 12.1429 6.44643 11.875 5.51339 11.4286H5.14286C2.30357 11.4286 0 13.7321 0 16.5714V17.8571C0 19.0402 0.959821 20 2.14286 20H15C16.183 20 17.1429 19.0402 17.1429 17.8571V16.5714C17.1429 13.7321 14.8393 11.4286 12 11.4286ZM21.4286 10C23.7946 10 25.7143 8.08036 25.7143 5.71429C25.7143 3.34821 23.7946 1.42857 21.4286 1.42857C19.0625 1.42857 17.1429 3.34821 17.1429 5.71429C17.1429 8.08036 19.0625 10 21.4286 10ZM23.5714 11.4286H23.4018C22.7813 11.6429 22.125 11.7857 21.4286 11.7857C20.7321 11.7857 20.0759 11.6429 19.4554 11.4286H19.2857C18.375 11.4286 17.5357 11.692 16.7991 12.1161C17.8884 13.2902 18.5714 14.8482 18.5714 16.5714V18.2857C18.5714 18.3839 18.5491 18.4777 18.5446 18.5714H26.4286C27.6116 18.5714 28.5714 17.6116 28.5714 16.4286C28.5714 13.6652 26.3348 11.4286 23.5714 11.4286Z" fill="#EEEEEE"/>
</svg>
