<svg width="95" height="116" viewBox="0 0 95 116" fill="none" xmlns="http://www.w3.org/2000/svg">
<path d="M45.5 11.4844C49.8332 20.4913 52.5372 28.0264 49.25 37.7969C48.1629 40.4184 47.3169 41.6779 45.3125 43.7969C42.0442 48.643 43.0009 54.7526 44.0195 60.3281C44.1781 61.0397 44.3366 61.7513 44.5 62.4844C47.9978 60.7355 49.163 57.0278 50.5 53.4844C50.8693 51.2749 50.8693 51.2749 51 49.0469C51.5888 41.2848 55.1309 34.9844 60.5 29.4844C64.504 26.5949 67.9434 25.8885 72.8125 25.2969C74.0668 25.1383 75.321 24.9798 76.6133 24.8164C77.5659 24.7068 78.5185 24.5973 79.5 24.4844C79.1888 34.6919 78.2131 41.7029 71.1875 49.2969C67.2917 52.9591 63.3693 55.2223 57.9336 55.7188C55.2715 56.2527 55.2715 56.2527 54.1367 58.8828C53.8235 59.8651 53.5102 60.8473 53.1875 61.8594C52.6983 63.325 52.6983 63.325 52.1992 64.8203C51.3731 67.5089 51.3731 67.5089 51.5 70.4844C55.9407 68.5519 60.3567 66.5915 64.6875 64.4219C65.3436 64.0957 65.9998 63.7696 66.6758 63.4336C68.2782 62.5998 69.832 61.6736 71.375 60.7344C75.8697 58.9365 79.732 58.5878 84.5 59.4844C88.0767 61.1655 91.2884 63.1884 94.5 65.4844C93.2194 67.1919 91.8823 68.8581 90.5 70.4844C89.84 70.4844 89.18 70.4844 88.5 70.4844C88.5 71.1444 88.5 71.8044 88.5 72.4844C82.1107 75.0488 77.3932 76.2319 70.6406 73.8203C65.2258 72.0226 61.9086 72.8931 56.7695 75.3008C56.0206 75.6914 55.2716 76.082 54.5 76.4844C53.51 77 52.52 77.5156 51.5 78.0469C45.7776 85.0211 47.3386 96.0493 47.573 104.578C47.5902 105.412 47.6073 106.246 47.625 107.105C47.6482 107.852 47.6714 108.599 47.6953 109.369C47.4712 111.796 46.7064 113.385 45.5 115.484C43.5005 115.527 41.4996 115.525 39.5 115.484C38.5 114.484 38.5 114.484 38.4976 112.051C38.5473 110.989 38.5971 109.926 38.6484 108.832C38.6832 107.662 38.718 106.492 38.7539 105.287C38.8335 102.828 38.937 100.369 39.0664 97.9121C39.2436 90.1792 38.2086 85.6028 33.4087 79.4705C30.4407 76.3822 28.6199 74.614 24.293 74.1133C22.5083 74.0804 22.5083 74.0804 20.6875 74.0469C14.7473 73.7437 11.1752 73.1811 6.5 69.4844C6.005 67.9994 6.005 67.9994 5.5 66.4844C4.84 66.4844 4.18 66.4844 3.5 66.4844C1.9375 63.6719 1.9375 63.6719 0.5 60.4844C0.83 59.4944 1.16 58.5044 1.5 57.4844C6.98849 55.6549 13.4955 55.2748 18.9258 57.4609C22.4964 59.653 25.8733 62.201 28.5 65.4844C28.5 66.4744 28.5 67.4644 28.5 68.4844C29.16 68.4844 29.82 68.4844 30.5 68.4844C30.5 69.1444 30.5 69.8044 30.5 70.4844C31.0569 70.7113 31.6137 70.9381 32.1875 71.1719C35.1369 72.8459 37.1752 75.0339 39.5 77.4844C39.83 77.8144 40.16 78.1444 40.5 78.4844C40.922 74.1242 39.7029 70.707 38.2539 66.668C36.6427 62.0014 36.3196 57.6521 36.125 52.7344C35.8306 46.2925 35.8306 46.2925 33.9375 40.1719C31.7608 34.5883 31.4072 28.9508 33.2266 23.1797C35.247 18.8267 37.9012 15.6941 41.5 12.4844C42.5 11.4844 42.5 11.4844 45.5 11.4844Z" fill="#34403A"/>
<path d="M70.5 0.484375C72.3208 7.76756 72.3588 14.9081 68.5 21.4844C64.8089 25.6974 60.9905 28.1452 55.5 29.4844C52.942 21.3382 53.4103 14.8245 57.125 7.10938C60.7437 3.10979 65.0242 0.484375 70.5 0.484375Z" fill="#343F3A"/>
<path d="M9.5 27.4844C19.4381 29.2894 19.4381 29.2894 22.5 32.4844C22.5 33.1444 22.5 33.8044 22.5 34.4844C23.16 34.4844 23.82 34.4844 24.5 34.4844C27.8333 39.8467 28.459 45.2096 28.5 51.4844C28.17 52.1444 27.84 52.8044 27.5 53.4844C20.6271 52.5805 16.2214 50.6242 11.5 45.4844C8.27398 40.6453 8.28739 36.2247 8.5 30.4844C8.83 29.4944 9.16 28.5044 9.5 27.4844Z" fill="#33403A"/>
<path d="M58.5 80.4844C65.7362 80.1226 65.7362 80.1226 68.875 81.6094C70.9803 84.0385 71.6788 86.4049 72.5 89.4844C68.1374 90.5314 66.1995 90.8671 62.1875 88.6719C59.5 86.4844 59.5 86.4844 57.5 84.4844C57.875 82.3594 57.875 82.3594 58.5 80.4844Z" fill="#35403A"/>
</svg>
